<svg xmlns="http://www.w3.org/2000/svg" width="233.56" height="199.257" viewBox="0 0 61.796 52.72" fill="none" xmlns:v="https://vecta.io/nano"><g stroke="#dde8ee" stroke-linejoin="round" stroke-width="3.1"><path d="M28.609 6.569l-.069 22.166-.014 15.95c-1.946 9.374-12.733 7.498-14.253.839-5.901 1.344-10.958-4.49-8.102-10.217-5.946-2.595-6.257-10.182-.337-13.073-3.028-2.459-2.003-8.885 4.316-9.589-1.919-4.558 2.655-9.533 7.761-7.138 2.382-5.759 9.21-5.088 10.697 1.062z" paint-order="normal"/><g stroke-linecap="round"><path d="M10.151 12.645c1.534 3.026 3.28 4.917 6.938 5.475 3.47.088 5.147-1.543 6.644-3.412" paint-order="normal"/><path d="M17.089 18.12c3.358 1.42 5.729 3.777 6.731 6.514m-9.547 20.89c10.056-2.887 7.249-15.939-1.443-15.104"/></g></g><g stroke="#dde8ee" stroke-linejoin="round" stroke-width="3.1"><path d="M33.317 44.862l-.073-21.201-.001-16.304c.166-6.339 8.252-8.3 10.721-1.782 4.35-2.431 9.733 2.021 7.687 7.053 5.202.136 7.876 5.979 4.27 9.542 5.25 1.934 6.38 10.31-.331 13.156 2.599 4.269-.573 11.881-8.147 10.059-2.304 7.912-12.389 7.677-14.125-.525z" paint-order="normal"/><g stroke-linecap="round"><path d="M55.59 35.328c-4.472.5-6.354-.338-8.111-.794-6.551.231-7.542 5.335-7.542 5.335" paint-order="normal"/><path d="M47.48 34.534c-5.273-3.476-4.002-9.473-4.002-9.473m8.173-12.431c-3.057 7.678-9.653 3.663-9.653 3.663"/></g></g></svg>